<svg xmlns="http://www.w3.org/2000/svg" width="416" height="240" class="svgbob"><style>.svgbob line, .svgbob path, .svgbob circle, .svgbob rect, .svgbob polygon {
    stroke: black;
    stroke-width: 2;
    stroke-opacity: 1;
    fill-opacity: 1;
    stroke-linecap: round;
    stroke-linejoin: miter;
}
.svgbob text {
    white-space: pre;
    fill: black;
    font-family: Iosevka Fixed, monospace;
    font-size: 14px;
}
.svgbob rect.backdrop {
    stroke: none;
    fill: white;
}
.svgbob .broken {
    stroke-dasharray: 8;
}
.svgbob .filled {
    fill: black;
}
.svgbob .bg_filled {
    fill: white;
    stroke-width: 1;
}
.svgbob .nofill {
    fill: white;
}
.svgbob .end_marked_arrow {
    marker-end: url(#arrow);
}
.svgbob .start_marked_arrow {
    marker-start: url(#arrow);
}
.svgbob .end_marked_diamond {
    marker-end: url(#diamond);
}
.svgbob .start_marked_diamond {
    marker-start: url(#diamond);
}
.svgbob .end_marked_circle {
    marker-end: url(#circle);
}
.svgbob .start_marked_circle {
    marker-start: url(#circle);
}
.svgbob .end_marked_open_circle {
    marker-end: url(#open_circle);
}
.svgbob .start_marked_open_circle {
    marker-start: url(#open_circle);
}
.svgbob .end_marked_big_open_circle {
    marker-end: url(#big_open_circle);
}
.svgbob .start_marked_big_open_circle {
    marker-start: url(#big_open_circle);
}<!--separator--></style><defs><marker id="arrow" viewBox="-2 -2 8 8" refX="4" refY="2" markerWidth="7" markerHeight="7" orient="auto-start-reverse"><polygon points="0,0 0,4 4,2 0,0"></polygon></marker><marker id="diamond" viewBox="-2 -2 8 8" refX="4" refY="2" markerWidth="7" markerHeight="7" orient="auto-start-reverse"><polygon points="0,2 2,0 4,2 2,4 0,2"></polygon></marker><marker id="circle" viewBox="0 0 8 8" refX="4" refY="4" markerWidth="7" markerHeight="7" orient="auto-start-reverse"><circle cx="4" cy="4" r="2" class="filled"></circle></marker><marker id="open_circle" viewBox="0 0 8 8" refX="4" refY="4" markerWidth="7" markerHeight="7" orient="auto-start-reverse"><circle cx="4" cy="4" r="2" class="bg_filled"></circle></marker><marker id="big_open_circle" viewBox="0 0 8 8" refX="4" refY="4" markerWidth="7" markerHeight="7" orient="auto-start-reverse"><circle cx="4" cy="4" r="3" class="bg_filled"></circle></marker></defs><rect class="backdrop" x="0" y="0" width="416" height="240"></rect><rect x="260" y="88" width="64" height="32" class="solid nofill" rx="0"></rect><text x="274" y="108" >clamp</text><text x="178" y="12" >add</text><line x1="200" y1="16" x2="208" y2="16" class="solid"></line><text x="210" y="12" >q</text><line x1="196" y1="16" x2="196" y2="68" class="solid"></line><line x1="192" y1="40" x2="200" y2="40" class="solid"></line><text x="202" y="44" >8</text><polygon points="192,68 200,68 196,80" class="filled"></polygon><text x="74" y="92" >8</text><text x="146" y="92" >16</text><text x="226" y="92" >17</text><text x="2" y="108" >data</text><line x1="32" y1="112" x2="40" y2="112" class="solid"></line><text x="42" y="108" >q</text><line x1="48" y1="104" x2="88" y2="104" class="solid"></line><line x1="80" y1="96" x2="72" y2="112" class="solid"></line><polygon points="88,100 96,104 88,108" class="filled"></polygon><text x="114" y="108" >x</text><line x1="160" y1="96" x2="152" y2="112" class="solid"></line><polygon points="168,100 176,104 168,108" class="filled"></polygon><text x="194" y="108" >+</text><line x1="240" y1="96" x2="232" y2="112" class="solid"></line><polygon points="248,100 256,104 248,108" class="filled"></polygon><polygon points="112,140 116,128 120,140" class="filled"></polygon><line x1="112" y1="168" x2="120" y2="168" class="solid"></line><text x="42" y="188" >weight</text><line x1="88" y1="192" x2="96" y2="192" class="solid"></line><text x="98" y="188" >q</text><text x="10" y="204" >></text><text x="346" y="92" >8</text><line x1="328" y1="104" x2="360" y2="104" class="solid"></line><line x1="352" y1="96" x2="344" y2="112" class="solid"></line><polygon points="360,100 368,104 360,108" class="filled"></polygon><text x="370" y="108" >res</text><line x1="392" y1="112" x2="400" y2="112" class="solid"></line><text x="402" y="108" >o</text><text x="130" y="172" >8</text><g><line x1="100" y1="88" x2="132" y2="88" class="solid"></line><line x1="100" y1="88" x2="100" y2="120" class="solid"></line><line x1="132" y1="88" x2="132" y2="120" class="solid"></line><line x1="132" y1="104" x2="168" y2="104" class="solid"></line><line x1="100" y1="120" x2="132" y2="120" class="solid"></line></g><g><line x1="180" y1="88" x2="212" y2="88" class="solid"></line><line x1="180" y1="88" x2="180" y2="120" class="solid"></line><line x1="212" y1="88" x2="212" y2="120" class="solid"></line><line x1="212" y1="104" x2="248" y2="104" class="solid"></line><line x1="180" y1="120" x2="212" y2="120" class="solid"></line></g><g><line x1="116" y1="140" x2="116" y2="200" class="solid"></line><line x1="4" y1="168" x2="36" y2="168" class="solid"></line><line x1="4" y1="168" x2="4" y2="216" class="solid"></line><line x1="36" y1="168" x2="36" y2="216" class="solid"></line><line x1="36" y1="200" x2="116" y2="200" class="solid"></line><line x1="4" y1="216" x2="36" y2="216" class="solid"></line></g></svg>